#!OML:ASF E:\acrobat2\Project_11_07_03\Capture day 1\Session 1\Acrobat.ASF
:FULLY-SPECIFIED
:DEGREES
424
root 7.52391 8.43976 -7.85072 42.7933 0.752396 14.6991
lowerback 37.4544 -2.07673 -9.7792
upperback 11.2705 -5.48922 1.18086
thorax -4.90506 -2.6828 8.24391
lowerneck 3.56734 -6.36467 -1.12297
upperneck -37.6851 -5.279 15.3651
head -12.5561 -4.56173 6.96528
rclavicle -1.98785e-014 8.57259e-015
rhumerus 51.1863 13.7032 -68.9897
rradius 41.4663
rwrist 15.1622
rhand -32.3972 -82.5449
rfingers 7.12502
rthumb -5.63222 112.45
lclavicle -1.98785e-014 8.57259e-015
lhumerus 67.4025 -1.06239 62.9586
lradius 49.0045
lwrist -5.29254
lhand -44.1933 -29.0439
lfingers 7.12502
lthumb -17.0073 0.231583
rfemur -91.4116 -34.4281 28.6295
rtibia 35.0786
rfoot -200.027 3.86233
rtoes 7.16787
lfemur -113.682 48.8986 -36.7675
ltibia 47.8554
lfoot -157.739 25.1922
ltoes 52.6028
425
root 7.53373 8.48552 -7.60585 43.5994 0.460058 14.2938
lowerback 37.12 -2.42672 -9.79547
upperback 10.8832 -5.89037 1.48718
thorax -5.11916 -2.86041 8.72643
lowerneck 3.51283 -7.20437 -0.93455
upperneck -38.0395 -6.15603 16.8442
head -12.5318 -5.2469 7.64346
rclavicle 2.66371e-014 -3.18552e-014
rhumerus 50.6954 15.7942 -68.9148
rradius 41.4773
rwrist 15.3733
rhand -32.5088 -82.8351
rfingers 7.12502
rthumb -5.73997 112.737
lclavicle 2.66371e-014 -3.18552e-014
lhumerus 67.6987 -0.676637 62.543
lradius 46.2832
lwrist -4.29453
lhand -43.0284 -27.7281
lfingers 7.12502
lthumb -15.8857 1.64033
rfemur -89.2648 -34.8314 27.0127
rtibia 36.7303
rfoot -198.709 1.63567
rtoes 6.65665
lfemur -112.836 49.4076 -36.1598
ltibia 48.2638
lfoot -158.624 25.274
ltoes 51.5721
426
root 7.54659 8.5387 -7.35615 44.4743 0.179884 13.8562
lowerback 36.7076 -2.79671 -9.62455
upperback 10.4837 -6.24602 1.81338
thorax -5.3414 -3.0126 9.11688
lowerneck 3.49169 -8.04707 -0.764421
upperneck -38.4177 -7.05587 18.289
head -12.5049 -5.94078 8.31574
rclavicle -3.10104e-014 -3.57812e-015
rhumerus 50.101 17.7742 -68.8843
rradius 41.53
rwrist 15.7856
rhand -32.5987 -83.1587
rfingers 7.12502
rthumb -5.82678 113.059
lclavicle -3.10104e-014 -3.57812e-015
lhumerus 67.735 -0.518914 62.0231
lradius 43.7366
lwrist -2.87535
lhand -41.7497 -26.4658
lfingers 7.12502
lthumb -14.6541 2.99639
rfemur -87.2703 -35.1257 25.4808
rtibia 38.5086
rfoot -197.439 -0.545115
rtoes 5.89263
lfemur -111.705 49.8916 -35.3079
ltibia 48.8832
lfoot -158.503 24.9613
ltoes 51.1557
427
root 7.56417 8.59893 -7.10283 45.4068 -0.11422 13.363
lowerback 36.1249 -3.17111 -9.27266
upperback 10.1678 -6.52769 2.15141
thorax -5.5672 -3.12937 9.42448
lowerneck 3.52659 -8.85604 -0.624079
upperneck -38.8545 -7.93499 19.645
head -12.5039 -6.61426 8.96687
rclavicle -8.74653e-015 5.76476e-015
rhumerus 49.4196 19.6271 -68.846
rradius 41.6424
rwrist 16.3229
rhand -32.6832 -83.552
rfingers 7.12502
rthumb -5.90837 113.45
lclavicle -8.74653e-015 5.76476e-015
lhumerus 67.4828 -0.601019 61.4159
lradius 41.4267
lwrist -1.26859
lhand -40.4313 -25.1801
lfingers 7.12502
lthumb -13.3835 4.37006
rfemur -85.4756 -35.2977 24.0593
rtibia 40.3791
rfoot -196.161 -2.60186
rtoes 5.10755
lfemur -110.312 50.3624 -34.2294
ltibia 49.6891
lfoot -157.505 24.2595
ltoes 51.4034
428
root 7.58835 8.66579 -6.84679 46.3773 -0.447433 12.8049
lowerback 35.5512 -3.52429 -8.74884
upperback 9.77205 -6.73685 2.52504
thorax -5.78551 -3.21133 9.62396
lowerneck 3.62196 -9.60588 -0.549074
upperneck -39.3433 -8.75185 20.9262
head -12.5309 -7.24393 9.6083
rclavicle 5.725e-014 -5.56597e-014
rhumerus 48.6609 21.3398 -68.8587
rradius 41.7974
rwrist 16.9874
rhand -32.7661 -84.0138
rfingers 7.12502
rthumb -5.98838 113.909
lclavicle 5.725e-014 -5.56597e-014
lhumerus 66.992 -0.850801 60.811
lradius 39.3659
lwrist -0.0764366
lhand -39.0423 -24.4263
lfingers 7.12502
lthumb -12.0445 5.20707
rfemur -83.8945 -35.3634 22.7383
rtibia 42.3138
rfoot -194.911 -4.50472
rtoes 3.9038
lfemur -108.701 50.8167 -32.9727
ltibia 50.6435
lfoot -155.975 23.2419
ltoes 52.0566
429
root 7.62108 8.73866 -6.5883 47.3621 -0.841401 12.1833
lowerback 34.9073 -3.86306 -8.05624
upperback 9.39857 -6.87443 2.89845
thorax -5.98261 -3.26199 9.70295
lowerneck 3.76064 -10.2553 -0.446891
upperneck -39.8823 -9.46829 21.9958
head -12.6104 -7.80367 10.1705
rclavicle 3.26007e-014 -1.49089e-015
rhumerus 47.8618 22.9108 -68.933
rradius 41.9542
rwrist 17.7479
rhand -32.8456 -84.5025
rfingers 7.12502
rthumb -6.06513 114.396
lclavicle 3.26007e-014 -1.49089e-015
lhumerus 66.2849 -1.15199 60.4396
lradius 37.6173
lwrist -0.178204
lhand -38.3012 -23.8811
lfingers 7.12502
lthumb -11.3298 5.79289
rfemur -82.4933 -35.3574 21.4694
rtibia 44.3045
rfoot -193.602 -6.22885
rtoes 2.56677
lfemur -106.92 51.2463 -31.6043
ltibia 51.7094
lfoot -154.309 22.0523
ltoes 52.7666
430
root 7.66314 8.81739 -6.32704 48.2922 -1.30353 11.5062
lowerback 34.4209 -4.30798 -7.00802
upperback 8.93979 -7.06363 3.08318
thorax -6.37572 -3.31552 9.42032
lowerneck 3.92538 -10.7882 -0.261431
upperneck -40.2668 -10.0388 22.8945
head -12.6657 -8.27603 10.6225
rclavicle -2.38542e-014 2.31584e-014
rhumerus 46.8585 24.4261 -69.4342
rradius 42.0505
rwrist 18.6228
rhand -32.9246 -84.9558
rfingers 7.12502
rthumb -6.1414 114.847
lclavicle -2.38542e-014 2.31584e-014
lhumerus 65.194 -1.41069 60.2884
lradius 36.2863
lwrist -1.89113
lhand -38.1118 -23.3607
lfingers 7.12502
lthumb -11.1471 6.32318
rfemur -81.1429 -35.3247 20.1762
rtibia 46.3755
rfoot -192.163 -7.76176
rtoes 1.03011
lfemur -104.936 51.6552 -30.1272
ltibia 52.8648
lfoot -152.812 20.8731
ltoes 53.2761
431
root 7.71357 8.90107 -6.06454 49.1622 -1.8208 10.7827
lowerback 34.0608 -4.81959 -5.68136
upperback 8.42175 -7.26969 3.13824
thorax -6.92175 -3.36798 8.8687
lowerneck 4.1305 -11.1977 -0.0456062
upperneck -40.4991 -10.4658 23.5964
head -12.7026 -8.64909 10.9628
rclavicle 1.11319e-014 1.87852e-014
rhumerus 45.6986 25.8795 -70.2617
rradius 42.0534
rwrist 19.5964
rhand -33.0091 -85.3247
rfingers 7.12502
rthumb -6.22304 115.213
lclavicle 1.11319e-014 1.87852e-014
lhumerus 63.7493 -1.51208 60.547
lradius 35.4144
lwrist -4.89997
lhand -38.5412 -22.9603
lfingers 7.12502
lthumb -11.5612 6.70085
rfemur -79.8201 -35.2829 18.8626
rtibia 48.5156
rfoot -190.506 -9.14801
rtoes -0.33698
lfemur -102.804 52.0165 -28.5642
ltibia 54.0633
lfoot -151.56 19.7824
ltoes 53.5306
432
root 7.7711 8.98905 -5.8012 49.9047 -2.39689 10.02
lowerback 33.8798 -5.40039 -4.14002
upperback 7.86167 -7.51021 3.07101
thorax -7.61587 -3.43513 8.10342
lowerneck 4.41005 -11.4609 0.149525
upperneck -40.5523 -10.7253 24.0799
head -12.7212 -8.89847 11.1872
rclavicle -1.59028e-014 -4.29375e-014
rhumerus 44.4093 27.3378 -71.3518
rradius 41.9684
rwrist 20.6101
rhand -33.0986 -85.5845
rfingers 7.12502
rthumb -6.30937 115.471
lclavicle -1.59028e-014 -4.29375e-014
lhumerus 61.9487 -1.35254 61.0809
lradius 35.0451
lwrist -8.21657
lhand -39.3682 -22.7271
lfingers 7.12502
lthumb -12.3587 6.88763
rfemur -78.4301 -35.2424 17.4867
rtibia 50.7334
rfoot -188.529 -10.356
rtoes -1.37454
lfemur -100.44 52.3447 -26.845
ltibia 55.2756
lfoot -150.433 18.6587
ltoes 53.6781
433
root 7.83374 9.0809 -5.53853 50.4852 -3.02424 9.2344
lowerback 33.8774 -5.98785 -2.49073
upperback 7.31052 -7.72564 2.94793
thorax -8.39589 -3.50014 7.23374
lowerneck 4.71733 -11.6073 0.219988
upperneck -40.4245 -10.8569 24.432
head -12.6846 -9.04024 11.339
rclavicle 1.90833e-014 -1.13307e-014
rhumerus 43.0566 28.7184 -72.5933
rradius 41.7719
rwrist 21.6888
rhand -33.1933 -85.7402
rfingers 7.12502
rthumb -6.40085 115.623
lclavicle 1.90833e-014 -1.13307e-014
lhumerus 59.9377 -1.03042 61.5954
lradius 35.1742
lwrist -10.3945
lhand -40.1796 -22.8671
lfingers 7.12502
lthumb -13.1409 6.69884
rfemur -76.9499 -35.1941 16.0453
rtibia 52.9989
rfoot -186.233 -11.3513
rtoes -2.23378
lfemur -97.8068 52.6144 -24.9246
ltibia 56.4801
lfoot -149.343 17.3938
ltoes 53.8194
434
root 7.89933 9.17618 -5.27942 50.9075 -3.69578 8.45213
lowerback 33.97 -6.50201 -0.89169
upperback 6.84795 -7.84991 2.87
thorax -9.11834 -3.54222 6.41442
lowerneck 5.00959 -11.6553 0.161363
upperneck -40.2267 -10.9103 24.5971
head -12.6296 -9.09259 11.4134
rclavicle 4.29375e-014 -2.42517e-014
rhumerus 41.816 29.9573 -73.6717
rradius 41.485
rwrist 22.7432
rhand -33.3135 -85.8006
rfingers 7.12502
rthumb -6.51691 115.68
lclavicle 4.29375e-014 -2.42517e-014
lhumerus 57.8891 -0.712205 61.8085
lradius 35.6671
lwrist -10.6258
lhand -40.8836 -23.6696
lfingers 7.12502
lthumb -13.8194 5.85138
rfemur -75.4461 -35.1543 14.5661
rtibia 55.2788
rfoot -183.637 -12.1152
rtoes -3.00386
lfemur -94.9457 52.7737 -22.8206
ltibia 57.6558
lfoot -148.286 15.9463
ltoes 53.9475
435
root 7.96604 9.27437 -5.02726 51.1853 -4.4273 7.69948
lowerback 34.0903 -6.86836 0.524238
upperback 6.53402 -7.82912 2.89048
thorax -9.66653 -3.53685 5.73613
lowerneck 5.22483 -11.6415 -0.0169401
upperneck -40.0246 -10.9374 24.6013
head -12.5608 -9.0882 11.4262
rclavicle 7.95139e-015 3.598e-014
rhumerus 40.8152 30.9918 -74.3775
rradius 41.1274
rwrist 23.6981
rhand -33.5058 -85.7651
rfingers 7.12502
rthumb -6.70253 115.639
lclavicle 7.95139e-015 3.598e-014
lhumerus 55.9604 -0.620873 61.4934
lradius 36.3787
lwrist -8.75578
lhand -41.5164 -24.9401
lfingers 7.12502
lthumb -14.4292 4.53828
rfemur -74.0108 -35.1234 13.0715
rtibia 57.5035
rfoot -180.765 -12.5623
rtoes -3.71779
lfemur -91.9314 52.7867 -20.5977
ltibia 58.793
lfoot -147.224 14.243
ltoes 54.0897
436
root 8.03259 9.37479 -4.78509 51.3278 -5.23252 6.98319
lowerback 34.2272 -7.05866 1.72994
upperback 6.38243 -7.64505 2.98334
thorax -10.0138 -3.46974 5.1707
lowerneck 5.31929 -11.6032 -0.244504
upperneck -39.8315 -10.9756 24.476
head -12.4738 -9.06012 11.3787
rclavicle -1.59028e-015 7.7526e-015
rhumerus 40.0651 31.7532 -74.687
rradius 40.7209
rwrist 24.5318
rhand -33.7708 -85.6414
rfingers 7.12502
rthumb -6.95833 115.507
lclavicle -1.59028e-015 7.7526e-015
lhumerus 54.2536 -0.93861 60.5391
lradius 37.1444
lwrist -5.4936
lhand -41.9518 -26.9635
lfingers 7.12502
lthumb -14.8487 2.48446
rfemur -72.709 -35.0885 11.5844
rtibia 59.5973
rfoot -177.849 -12.7348
rtoes -5.16418
lfemur -88.8426 52.639 -18.3132
ltibia 59.8883
lfoot -146.158 12.2997
ltoes 54.2154
437
root 8.09861 9.47659 -4.55516 51.3345 -6.13466 6.30502
lowerback 34.3398 -7.03881 2.67125
upperback 6.43088 -7.28418 3.14016
thorax -10.0941 -3.33031 4.7215
lowerneck 5.29298 -11.5605 -0.470386
upperneck -39.7119 -11.0415 24.2304
head -12.3993 -9.02787 11.2821
rclavicle -1.59028e-014 5.26779e-014
rhumerus 39.6326 32.2041 -74.5234
rradius 40.2829
rwrist 25.2038
rhand -34.0384 -85.4312
rfingers 7.12502
rthumb -7.21661 115.288
lclavicle -1.59028e-014 5.26779e-014
lhumerus 52.8938 -1.68308 59.0846
lradius 37.8393
lwrist -2.14563
lhand -42.8491 -29.0289
lfingers 7.12502
lthumb -15.713 0.353185
rfemur -71.568 -35.0401 10.1042
rtibia 61.4952
rfoot -175.045 -12.6676
rtoes -7.27583
lfemur -85.7391 52.3314 -16.0172
ltibia 60.9421
lfoot -145.061 10.1119
ltoes 54.322
